                                                                        S      1
,,,12HCircular bar,22HAutodesk Inventor 2023,7Hunknown,32,38,7,99,15,,  G      1
1.,2,2HMM,1,0.08,15H20230119.140104,0.01,10000.,5Hogwen,,11,0,15H2023011G      2
9.000000;                                                               G      3
     186       1                                                00000000D      1
     186             -87       1       0                               0D      2
     514       2                                                00010000D      3
     514                       1       1                               0D      4
     510       3                                                00010000D      5
     510             -87       1       1                               0D      6
     510       4                                                00010000D      7
     510             -87       1       1                               0D      8
     510       5                                                00010000D      9
     510             -87       1       1                               0D     10
     510       6                                                00010000D     11
     510             -87       1       1                               0D     12
     510       7                                                00010000D     13
     510             -87       1       1                               0D     14
     510       8                                                00010000D     15
     510             -87       1       1                               0D     16
     510       9                                                00010000D     17
     510             -87       1       1                               0D     18
     508      10                                                00010000D     19
     508                       2       1                               0D     20
     508      12                                                00010000D     21
     508                       1       1                               0D     22
     508      13                                                00010000D     23
     508                       1       1                               0D     24
     508      14                                                00010000D     25
     508                       2       1                               0D     26
     508      16                                                00010000D     27
     508                       1       1                               0D     28
     508      17                                                00010000D     29
     508                       1       1                               0D     30
     508      18                                                00010000D     31
     508                       2       1                               0D     32
     508      20                                                00010000D     33
     508                       1       1                               0D     34
     508      21                                                00010000D     35
     508                       1       1                               0D     36
     126      22                                                00010000D     37
     126       0               5       0                               0D     38
     126      27                                                00010000D     39
     126       0               7       0                               0D     40
     126      34                                                00010000D     41
     126       0               2       0                               0D     42
     126      36                                                00010000D     43
     126       0               7       0                               0D     44
     126      43                                                00010000D     45
     126       0               5       0                               0D     46
     126      48                                                00010000D     47
     126       0               5       0                               0D     48
     126      53                                                00010000D     49
     126       0               7       0                               0D     50
     126      60                                                00010000D     51
     126       0               5       0                               0D     52
     126      65                                                00010000D     53
     126       0               7       0                               0D     54
     126      72                                                00010000D     55
     126       0               3       0                               0D     56
     126      75                                                00010000D     57
     126       0               5       0                               0D     58
     126      80                                                00010000D     59
     126       0               7       0                               0D     60
     126      87                                                00010000D     61
     126       0               5       0                               0D     62
     126      92                                                00010000D     63
     126       0               7       0                               0D     64
     126      99                                                00010000D     65
     126       0               3       0                               0D     66
     128     102                                                00010000D     67
     128       0     -87      12       0                               0D     68
     128     114                                                00010000D     69
     128       0     -87       3       0                               0D     70
     128     117                                                00010000D     71
     128       0     -87      13       0                               0D     72
     128     130                                                00010000D     73
     128       0     -87       3       0                               0D     74
     128     133                                                00010000D     75
     128       0     -87       3       0                               0D     76
     128     136                                                00010000D     77
     128       0     -87      13       0                               0D     78
     128     149                                                00010000D     79
     128       0     -87       3       0                               0D     80
     502     152                                                00010000D     81
     502                       3       1                               0D     82
     504     155                                                00010001D     83
     504                       4       1                               0D     84
     406     159                                                00000000D     85
     406                       1      15                               0D     86
     314     160                                                00000200D     87
     314                       1       0                               0D     88
186,3,1,0,0,1,85;                                                      1P      1
514,7,5,1,7,1,9,1,11,1,13,1,15,1,17,1;                                 3P      2
510,67,1,1,19;                                                         5P      3
510,69,2,1,21,23;                                                      7P      4
510,71,1,1,25;                                                         9P      5
510,73,1,1,27;                                                        11P      6
510,75,1,1,29;                                                        13P      7
510,77,1,1,31;                                                        15P      8
510,79,2,1,33,35;                                                     17P      9
508,6,0,83,1,0,0,0,83,2,0,0,0,83,3,1,0,0,83,4,1,0,0,83,5,1,0,0,       19P     10
83,3,0,0;                                                             19P     11
508,2,0,83,6,0,0,0,83,7,0,0;                                          21P     12
508,2,0,83,1,1,0,0,83,2,1,0;                                          23P     13
508,6,0,83,8,0,0,0,83,9,0,0,0,83,10,1,0,0,83,7,1,0,0,83,6,1,0,0,      25P     14
83,10,0,0;                                                            25P     15
508,2,0,83,8,1,0,0,83,9,1,0;                                          27P     16
508,2,0,83,11,0,0,0,83,12,0,0;                                        29P     17
508,6,0,83,13,0,0,0,83,14,0,0,0,83,15,1,0,0,83,12,1,0,0,83,11,1,      31P     18
0,0,83,15,0,0;                                                        31P     19
508,2,0,83,13,1,0,0,83,14,1,0;                                        33P     20
508,2,0,83,5,0,0,0,83,4,0,0;                                          35P     21
126,4,2,0,0,0,0,0.,0.,0.,1.5707963267949,1.5707963267949,             37P     22
3.14159265358979,3.14159265358979,3.14159265358979,1.,                37P     23
0.707106781186548,1.,0.707106781186548,1.,50.,600.,0.,50.,600.,       37P     24
-50.,3.06161699786838D-15,600.,-50.,-50.,600.,-50.,-50.,600.,         37P     25
-6.12323399573677D-15,0.,3.14159265358979,0.,0.,0.;                   37P     26
126,4,2,0,0,0,0,3.14159265358979,3.14159265358979,                    39P     27
3.14159265358979,4.71238898038469,4.71238898038469,                   39P     28
6.28318530717959,6.28318530717959,6.28318530717959,1.,                39P     29
0.707106781186548,1.,0.707106781186548,1.,-50.,600.,                  39P     30
-6.12323399573677D-15,-50.,600.,50.,-9.18485099360515D-15,600.,       39P     31
50.,50.,600.,50.,50.,600.,1.22464679914735D-14,3.14159265358979,      39P     32
6.28318530717959,0.,0.,0.;                                            39P     33
126,1,1,0,0,1,0,-2.,-2.,2.,2.,1.,1.,-50.,600.,0.,-50.,400.,0.,        41P     34
-2.,2.,0.,0.,0.;                                                      41P     35
126,4,2,0,0,0,0,3.14159265358979,3.14159265358979,                    43P     36
3.14159265358979,4.71238898038469,4.71238898038469,                   43P     37
6.28318530717959,6.28318530717959,6.28318530717959,1.,                43P     38
0.707106781186548,1.,0.707106781186548,1.,-50.,400.,                  43P     39
-6.12323399573677D-15,-50.,400.,50.,-9.18485099360515D-15,400.,       43P     40
50.,50.,400.,50.,50.,400.,1.22464679914735D-14,3.14159265358979,      43P     41
6.28318530717959,0.,0.,0.;                                            43P     42
126,4,2,0,0,0,0,0.,0.,0.,1.5707963267949,1.5707963267949,             45P     43
3.14159265358979,3.14159265358979,3.14159265358979,1.,                45P     44
0.707106781186548,1.,0.707106781186548,1.,50.,400.,0.,50.,400.,       45P     45
-50.,3.06161699786838D-15,400.,-50.,-50.,400.,-50.,-50.,400.,         45P     46
-6.12323399573677D-15,0.,3.14159265358979,0.,0.,0.;                   45P     47
126,4,2,0,0,0,0,0.,0.,0.,1.5707963267949,1.5707963267949,             47P     48
3.14159265358979,3.14159265358979,3.14159265358979,1.,                47P     49
0.707106781186548,1.,0.707106781186547,1.,75.,600.,0.,75.,600.,       47P     50
-75.,4.59242549680258D-15,600.,-75.,-75.,600.,-75.,-75.,600.,         47P     51
-9.18485099360515D-15,0.,3.14159265358979,0.,0.,0.;                   47P     52
126,4,2,0,0,0,0,3.14159265358979,3.14159265358979,                    49P     53
3.14159265358979,4.71238898038469,4.71238898038469,                   49P     54
6.28318530717959,6.28318530717959,6.28318530717959,1.,                49P     55
0.707106781186548,1.,0.707106781186547,1.,-75.,600.,                  49P     56
-9.18485099360515D-15,-75.,600.,75.,-1.37772764904077D-14,600.,       49P     57
75.,75.,600.,75.,75.,600.,1.83697019872103D-14,3.14159265358979,      49P     58
6.28318530717959,0.,0.,0.;                                            49P     59
126,4,2,0,0,0,0,0.,0.,0.,1.5707963267949,1.5707963267949,             51P     60
3.14159265358979,3.14159265358979,3.14159265358979,1.,                51P     61
0.707106781186548,1.,0.707106781186547,1.,75.,1000.,0.,75.,           51P     62
1000.,-75.,4.59242549680258D-15,1000.,-75.,-75.,1000.,-75.,-75.,      51P     63
1000.,-9.18485099360515D-15,0.,3.14159265358979,0.,0.,0.;             51P     64
126,4,2,0,0,0,0,3.14159265358979,3.14159265358979,                    53P     65
3.14159265358979,4.71238898038469,4.71238898038469,                   53P     66
6.28318530717959,6.28318530717959,6.28318530717959,1.,                53P     67
0.707106781186548,1.,0.707106781186547,1.,-75.,1000.,                 53P     68
-9.18485099360515D-15,-75.,1000.,75.,-1.37772764904077D-14,           53P     69
1000.,75.,75.,1000.,75.,75.,1000.,1.83697019872103D-14,               53P     70
3.14159265358979,6.28318530717959,0.,0.,0.;                           53P     71
126,1,1,0,0,1,0,-2.66666666666667,-2.66666666666667,                  55P     72
2.66666666666667,2.66666666666667,1.,1.,-75.,1000.,0.,-75.,600.,      55P     73
0.,-2.66666666666667,2.66666666666667,0.,0.,0.;                       55P     74
126,4,2,0,0,0,0,0.,0.,0.,1.5707963267949,1.5707963267949,             57P     75
3.14159265358979,3.14159265358979,3.14159265358979,1.,                57P     76
0.707106781186548,1.,0.707106781186547,1.,75.,0.,0.,75.,0.,-75.,      57P     77
4.59242549680258D-15,0.,-75.,-75.,0.,-75.,-75.,0.,                    57P     78
-9.18485099360515D-15,0.,3.14159265358979,0.,0.,0.;                   57P     79
126,4,2,0,0,0,0,3.14159265358979,3.14159265358979,                    59P     80
3.14159265358979,4.71238898038469,4.71238898038469,                   59P     81
6.28318530717959,6.28318530717959,6.28318530717959,1.,                59P     82
0.707106781186548,1.,0.707106781186547,1.,-75.,0.,                    59P     83
-9.18485099360515D-15,-75.,0.,75.,-1.37772764904077D-14,0.,75.,       59P     84
75.,0.,75.,75.,0.,1.83697019872103D-14,3.14159265358979,              59P     85
6.28318530717959,0.,0.,0.;                                            59P     86
126,4,2,0,0,0,0,0.,0.,0.,1.5707963267949,1.5707963267949,             61P     87
3.14159265358979,3.14159265358979,3.14159265358979,1.,                61P     88
0.707106781186548,1.,0.707106781186547,1.,75.,400.,0.,75.,400.,       61P     89
-75.,4.59242549680258D-15,400.,-75.,-75.,400.,-75.,-75.,400.,         61P     90
-9.18485099360515D-15,0.,3.14159265358979,0.,0.,0.;                   61P     91
126,4,2,0,0,0,0,3.14159265358979,3.14159265358979,                    63P     92
3.14159265358979,4.71238898038469,4.71238898038469,                   63P     93
6.28318530717959,6.28318530717959,6.28318530717959,1.,                63P     94
0.707106781186548,1.,0.707106781186547,1.,-75.,400.,                  63P     95
-9.18485099360515D-15,-75.,400.,75.,-1.37772764904077D-14,400.,       63P     96
75.,75.,400.,75.,75.,400.,1.83697019872103D-14,3.14159265358979,      63P     97
6.28318530717959,0.,0.,0.;                                            63P     98
126,1,1,0,0,1,0,-2.66666666666667,-2.66666666666667,                  65P     99
2.66666666666667,2.66666666666667,1.,1.,-75.,400.,0.,-75.,0.,0.,      65P    100
-2.66666666666667,2.66666666666667,0.,0.,0.;                          65P    101
128,1,8,1,2,0,1,0,0,1,-2.,-2.,2.,2.,-3.14159265358979,                67P    102
-3.14159265358979,-3.14159265358979,-1.5707963267949,                 67P    103
-1.5707963267949,0.,0.,1.5707963267949,1.5707963267949,               67P    104
3.14159265358979,3.14159265358979,3.14159265358979,1.,1.,             67P    105
0.707106781186548,0.707106781186548,1.,1.,0.707106781186548,          67P    106
0.707106781186548,1.,1.,0.707106781186548,0.707106781186548,1.,       67P    107
1.,0.707106781186548,0.707106781186548,1.,1.,-50.,600.,0.,-50.,       67P    108
400.,0.,-50.,600.,50.,-50.,400.,50.,0.,600.,50.,0.,400.,50.,50.,      67P    109
600.,50.,50.,400.,50.,50.,600.,0.,50.,400.,0.,50.,600.,-50.,50.,      67P    110
400.,-50.,0.,600.,-50.,0.,400.,-50.,-50.,600.,-50.,-50.,400.,         67P    111
-50.,-50.,600.,0.,-50.,400.,0.,-2.,2.,-3.14159265358979,              67P    112
3.14159265358979;                                                     67P    113
128,1,1,1,1,0,0,1,0,0,-7.501,-7.501,7.501,7.501,-15.001,-15.001,      69P    114
0.001,0.001,1.,1.,1.,1.,-75.01,600.,75.01,-75.01,600.,-75.01,         69P    115
75.01,600.,75.01,75.01,600.,-75.01,-7.501,7.501,-15.001,0.001;        69P    116
128,1,8,1,2,0,1,0,0,1,-2.66666666666667,-2.66666666666667,            71P    117
2.66666666666667,2.66666666666667,-3.14159265358979,                  71P    118
-3.14159265358979,-3.14159265358979,-1.5707963267949,                 71P    119
-1.5707963267949,0.,0.,1.5707963267949,1.5707963267949,               71P    120
3.14159265358979,3.14159265358979,3.14159265358979,1.,1.,             71P    121
0.707106781186548,0.707106781186548,1.,1.,0.707106781186548,          71P    122
0.707106781186548,1.,1.,0.707106781186548,0.707106781186548,1.,       71P    123
1.,0.707106781186548,0.707106781186548,1.,1.,-75.,1000.,0.,-75.,      71P    124
600.,0.,-75.,1000.,75.,-75.,600.,75.,0.,1000.,75.,0.,600.,75.,        71P    125
75.,1000.,75.,75.,600.,75.,75.,1000.,0.,75.,600.,0.,75.,1000.,        71P    126
-75.,75.,600.,-75.,0.,1000.,-75.,0.,600.,-75.,-75.,1000.,-75.,        71P    127
-75.,600.,-75.,-75.,1000.,0.,-75.,600.,0.,-2.66666666666667,          71P    128
2.66666666666667,-3.14159265358979,3.14159265358979;                  71P    129
128,1,1,1,1,0,0,1,0,0,-7.501,-7.501,7.501,7.501,-7.501,-7.501,        73P    130
7.501,7.501,1.,1.,1.,1.,-75.01,1000.,-75.01,-75.01,1000.,75.01,       73P    131
75.01,1000.,-75.01,75.01,1000.,75.01,-7.501,7.501,-7.501,7.501;       73P    132
128,1,1,1,1,0,0,1,0,0,-7.501,-7.501,7.501,7.501,-15.001,-15.001,      75P    133
0.001,0.001,1.,1.,1.,1.,-75.01,0.,75.01,-75.01,0.,-75.01,75.01,       75P    134
0.,75.01,75.01,0.,-75.01,-7.501,7.501,-15.001,0.001;                  75P    135
128,1,8,1,2,0,1,0,0,1,-2.66666666666667,-2.66666666666667,            77P    136
2.66666666666667,2.66666666666667,-3.14159265358979,                  77P    137
-3.14159265358979,-3.14159265358979,-1.5707963267949,                 77P    138
-1.5707963267949,0.,0.,1.5707963267949,1.5707963267949,               77P    139
3.14159265358979,3.14159265358979,3.14159265358979,1.,1.,             77P    140
0.707106781186548,0.707106781186548,1.,1.,0.707106781186548,          77P    141
0.707106781186548,1.,1.,0.707106781186548,0.707106781186548,1.,       77P    142
1.,0.707106781186548,0.707106781186548,1.,1.,-75.,400.,0.,-75.,       77P    143
0.,0.,-75.,400.,75.,-75.,0.,75.,0.,400.,75.,0.,0.,75.,75.,400.,       77P    144
75.,75.,0.,75.,75.,400.,0.,75.,0.,0.,75.,400.,-75.,75.,0.,-75.,       77P    145
0.,400.,-75.,0.,0.,-75.,-75.,400.,-75.,-75.,0.,-75.,-75.,400.,        77P    146
0.,-75.,0.,0.,-2.66666666666667,2.66666666666667,                     77P    147
-3.14159265358979,3.14159265358979;                                   77P    148
128,1,1,1,1,0,0,1,0,0,-7.501,-7.501,7.501,7.501,-12.501,-12.501,      79P    149
2.501,2.501,1.,1.,1.,1.,-75.01,400.,-75.01,-75.01,400.,75.01,         79P    150
75.01,400.,-75.01,75.01,400.,75.01,-7.501,7.501,-12.501,2.501;        79P    151
502,12,50.,600.,0.,-50.,600.,0.,-50.,400.,0.,50.,400.,0.,75.,         81P    152
600.,0.,-75.,600.,0.,75.,1000.,0.,-75.,1000.,0.,75.,0.,0.,-75.,       81P    153
0.,0.,75.,400.,0.,-75.,400.,0.;                                       81P    154
504,15,37,81,1,81,2,39,81,2,81,1,41,81,2,81,3,43,81,3,81,4,45,        83P    155
81,4,81,3,47,81,5,81,6,49,81,6,81,5,51,81,7,81,8,53,81,8,81,7,        83P    156
55,81,8,81,6,57,81,9,81,10,59,81,10,81,9,61,81,11,81,12,63,81,        83P    157
12,81,11,65,81,12,81,10;                                              83P    158
406,1,6HSolid1;                                                       85P    159
314,74.9019607843137,74.9019607843137,74.9019607843137,;              87P    160
S      1G      3D     88P    160                                        T      1
